# xmcd
#
# Track frame offsets: 
#        150
#        18845
#        30532
#        49322
#        62472
#        83140
#        97645
#        114417
#        130690
#        148920
#        168170
#        175777
#
# Disc length: 2526 seconds
#
# Revision: 0
# Processed by: cddbd v1.5PL3 Copyright (c) Steve Scherf et al.
# Submitted via: ExactAudioCopy v0.90b4
#
DISCID=8b09dc0c
DTITLE=Various Artist - As Melhores Canções Gaúchas [CD12 of 12)
DYEAR=1994
DGENRE=Gauchesca
TTITLE0=Wilson Paim - Canto Alegretense
TTITLE1=Antoninho Duarte - Violão Campeiro
TTITLE2=Joca Martins - Xucro Ofício
TTITLE3=Luiz Carlos Borges - O Bugio
TTITLE4=Wilson Paim - Prenda Minha
TTITLE5=Jorge Guedes - Destino De Peão
TTITLE6=Dante Ramon Ledesma - O Grito Dos Livres
TTITLE7=José Cláudio Machado - De Como Cantar Um Flete
TTITLE8=Beto Caetano (Part. Esp. Adriano Lima) - Trem Da Saudade
TTITLE9=Telmo De Lima Freitas - Pago Santo
TTITLE10=Caverá - Vaneirão Do Caverá
TTITLE11=José Cláudio Machado - Gaudério
EXTD=
EXTT0=
EXTT1=
EXTT2=
EXTT3=
EXTT4=
EXTT5=
EXTT6=
EXTT7=
EXTT8=
EXTT9=
EXTT10=
EXTT11=
PLAYORDER=
